<svg id="svg" version="1.1" xmlns="http://www.w3.org/2000/svg" xmlns:xlink="http://www.w3.org/1999/xlink" width="141.298" height="87.048" viewBox="0, 0, 400,400"><g id="svgg"><path id="path0" d="M117.877 159.876 C 117.767 160.054,149.834 160.194,189.138 160.186 C 228.442 160.179,265.415 160.249,271.300 160.342 L 282.000 160.511 282.000 161.654 L 282.000 162.796 199.762 162.898 C 145.260 162.966,117.439 162.865,117.272 162.600 C 117.133 162.380,117.075 161.865,117.143 161.456 C 117.217 161.004,117.095 160.817,116.833 160.980 C 116.193 161.375,116.306 162.191,117.101 162.910 C 118.235 163.937,282.626 163.732,282.545 162.704 C 282.515 162.322,282.669 162.119,282.888 162.254 C 283.537 162.655,282.758 160.658,282.069 160.154 C 281.339 159.620,118.206 159.344,117.877 159.876 M141.386 182.423 C 141.258 182.630,140.612 182.800,139.950 182.800 L 138.748 182.800 138.905 185.641 C 139.015 187.645,138.905 188.638,138.531 189.012 C 138.239 189.304,138.000 189.826,138.000 190.171 C 138.000 190.517,137.850 190.800,137.668 190.800 C 137.485 190.800,137.080 191.295,136.768 191.900 C 136.455 192.505,135.513 193.673,134.673 194.495 C 133.833 195.317,133.258 196.169,133.394 196.390 C 133.538 196.623,133.381 196.691,133.021 196.553 C 132.581 196.384,132.400 196.560,132.400 197.157 C 132.400 197.621,132.220 198.000,132.000 198.000 C 131.780 198.000,131.600 198.709,131.600 199.576 C 131.600 200.443,131.780 201.264,132.000 201.400 C 132.547 201.738,132.508 203.600,131.953 203.600 C 131.702 203.600,131.599 203.953,131.718 204.407 C 131.834 204.851,131.675 205.468,131.364 205.778 C 131.054 206.089,130.800 206.560,130.800 206.825 C 130.800 207.089,130.419 207.637,129.953 208.041 C 129.463 208.465,129.204 209.035,129.340 209.388 C 129.469 209.725,129.376 210.000,129.134 210.000 C 127.274 210.000,126.069 214.298,127.700 215.116 C 129.062 215.800,139.836 215.574,139.689 214.866 C 139.627 214.572,139.945 214.235,140.395 214.117 C 140.845 214.000,141.165 213.683,141.106 213.414 C 140.666 211.391,147.511 208.638,148.600 210.400 C 148.736 210.620,149.117 210.800,149.447 210.800 C 149.799 210.800,149.929 210.609,149.762 210.338 C 149.585 210.052,149.652 209.985,149.940 210.163 C 150.207 210.328,150.299 210.861,150.158 211.425 C 150.009 212.019,150.086 212.400,150.357 212.400 C 150.600 212.400,150.800 212.683,150.800 213.029 C 150.800 214.075,151.994 215.054,152.430 214.365 C 152.627 214.054,152.791 213.981,152.794 214.203 C 152.813 215.430,162.968 216.250,163.913 215.100 C 164.526 214.355,164.419 211.693,163.767 211.443 C 163.462 211.325,163.319 210.954,163.450 210.615 C 163.600 210.224,163.459 210.000,163.062 210.000 C 162.718 210.000,162.123 209.325,161.739 208.500 C 161.355 207.675,160.674 206.672,160.226 206.271 C 159.777 205.870,159.407 205.330,159.403 205.071 C 159.399 204.812,159.175 204.213,158.905 203.740 C 158.502 203.032,158.520 202.840,159.007 202.653 C 159.333 202.527,159.600 202.149,159.600 201.813 C 159.600 201.476,159.792 201.200,160.027 201.200 C 160.262 201.200,160.348 200.865,160.218 200.456 C 160.072 199.997,160.253 199.508,160.691 199.176 C 161.295 198.718,161.326 198.721,160.900 199.199 C 160.019 200.187,160.366 200.571,161.326 199.670 C 162.634 198.441,163.014 198.549,165.276 200.800 C 166.382 201.900,167.442 202.800,167.631 202.800 C 167.820 202.800,167.867 203.082,167.734 203.427 C 167.602 203.772,167.688 204.447,167.926 204.927 C 168.164 205.407,168.424 206.160,168.503 206.600 C 168.583 207.040,168.830 207.366,169.053 207.324 C 169.276 207.282,169.445 207.642,169.429 208.124 C 169.412 208.650,169.612 208.956,169.930 208.890 C 170.221 208.830,170.342 208.970,170.199 209.201 C 169.816 209.821,173.433 213.067,174.817 213.343 C 175.471 213.474,175.960 213.803,175.903 214.074 C 175.846 214.347,176.240 214.597,176.783 214.633 C 177.324 214.669,177.834 214.902,177.916 215.149 C 177.999 215.397,178.512 215.600,179.057 215.600 C 179.613 215.600,179.939 215.425,179.801 215.201 C 179.642 214.944,179.882 214.924,180.477 215.145 C 182.068 215.736,186.232 215.684,186.745 215.066 C 187.010 214.747,187.629 214.593,188.203 214.703 C 188.784 214.814,189.200 214.707,189.200 214.447 C 189.200 214.201,189.486 214.000,189.835 214.000 C 190.597 214.000,194.800 209.722,194.800 208.946 C 194.800 208.646,194.999 208.400,195.243 208.400 C 195.486 208.400,195.579 208.123,195.450 207.785 C 195.315 207.435,195.469 207.072,195.807 206.942 C 196.133 206.817,196.400 206.384,196.400 205.981 C 196.400 205.577,196.580 205.136,196.800 205.000 C 197.386 204.638,197.289 203.901,196.700 204.241 C 196.212 204.522,197.805 202.536,198.600 201.873 C 198.859 201.657,198.817 201.465,198.483 201.331 C 198.089 201.171,198.076 200.991,198.429 200.566 C 198.683 200.259,199.033 200.097,199.208 200.205 C 199.383 200.313,199.438 200.066,199.330 199.656 C 199.213 199.208,199.388 198.813,199.768 198.668 C 200.621 198.340,200.550 197.215,199.600 196.000 C 199.170 195.450,198.814 194.775,198.809 194.500 C 198.804 194.225,198.620 194.000,198.400 194.000 C 198.180 194.000,198.000 193.640,198.000 193.200 C 198.000 192.760,197.820 192.400,197.600 192.400 C 197.105 192.400,197.077 191.030,197.553 190.095 C 198.608 188.021,198.868 187.234,198.626 186.843 C 198.460 186.574,198.592 186.499,198.973 186.645 C 199.480 186.840,199.579 186.519,199.541 184.808 C 199.500 183.007,199.398 182.760,198.762 182.926 C 198.359 183.031,197.821 182.866,197.566 182.559 C 197.015 181.895,188.015 181.745,187.371 182.389 C 187.158 182.602,186.627 182.832,186.191 182.900 C 184.155 183.217,183.682 185.271,185.356 186.528 C 185.957 186.979,186.242 187.519,186.122 187.978 C 186.016 188.381,186.126 188.831,186.365 188.978 C 186.931 189.328,186.963 200.252,186.400 200.600 C 186.180 200.736,186.000 201.287,186.000 201.824 C 186.000 202.361,185.834 202.800,185.632 202.800 C 185.429 202.800,185.140 203.364,184.988 204.053 C 184.778 205.010,184.621 205.176,184.326 204.753 C 184.027 204.326,183.893 204.314,183.736 204.700 C 183.406 205.514,180.031 205.347,179.707 204.501 C 179.559 204.117,179.040 203.404,178.553 202.916 C 177.986 202.350,177.744 201.736,177.881 201.213 C 177.998 200.764,177.893 200.153,177.647 199.857 C 177.072 199.164,176.989 191.337,177.549 190.662 C 177.777 190.386,178.008 189.507,178.062 188.707 C 178.117 187.889,178.330 187.357,178.548 187.491 C 178.774 187.631,178.826 187.445,178.673 187.045 C 178.515 186.634,178.569 186.457,178.808 186.605 C 179.537 187.056,180.457 185.662,180.326 184.303 C 180.220 183.207,180.041 183.003,179.200 183.018 C 178.650 183.027,178.056 182.802,177.880 182.518 C 177.178 181.381,167.481 181.829,166.255 183.055 C 165.177 184.132,164.885 185.358,165.600 185.800 C 165.820 185.936,166.000 186.382,166.000 186.790 C 166.000 187.199,166.167 187.593,166.371 187.667 C 166.964 187.880,167.027 192.813,166.440 193.175 C 166.164 193.346,165.997 193.824,166.069 194.239 C 166.152 194.716,165.868 195.140,165.295 195.394 C 164.796 195.614,164.474 196.015,164.577 196.284 C 164.680 196.554,164.565 196.898,164.321 197.049 C 164.052 197.215,163.989 197.141,164.162 196.862 C 164.319 196.608,164.267 196.400,164.047 196.400 C 163.827 196.400,163.536 196.580,163.400 196.800 C 163.264 197.020,162.613 197.200,161.953 197.200 C 161.264 197.200,160.857 197.368,160.997 197.595 C 161.135 197.819,160.982 197.891,160.646 197.762 C 160.318 197.637,160.148 197.279,160.268 196.967 C 160.413 196.588,160.206 196.400,159.643 196.400 C 159.179 196.400,158.800 196.220,158.800 196.000 C 158.800 195.780,158.333 195.600,157.763 195.600 C 157.062 195.600,156.657 195.341,156.516 194.800 C 156.401 194.360,156.148 194.000,155.953 194.000 C 155.759 194.000,155.600 193.764,155.600 193.475 C 155.600 193.187,155.240 192.564,154.800 192.092 C 154.360 191.620,154.000 190.791,154.000 190.250 C 154.000 189.709,153.798 189.199,153.550 189.117 C 153.269 189.023,153.106 187.860,153.116 186.021 C 153.126 184.151,152.946 182.889,152.623 182.566 C 152.013 181.956,141.755 181.826,141.386 182.423 M207.800 182.400 C 207.664 182.620,207.004 182.800,206.334 182.800 C 205.433 182.800,205.173 182.952,205.337 183.380 C 205.485 183.767,205.367 183.885,204.980 183.737 C 204.573 183.581,204.404 183.795,204.413 184.457 C 204.427 185.509,205.257 186.800,205.920 186.800 C 206.158 186.800,206.481 187.008,206.638 187.262 C 206.825 187.565,206.747 187.614,206.410 187.406 C 206.065 187.193,205.963 187.272,206.098 187.644 C 206.209 187.950,206.457 188.170,206.650 188.133 C 207.169 188.034,206.961 193.746,206.439 193.920 C 206.198 194.001,206.000 194.412,206.000 194.833 C 206.000 195.255,205.820 195.600,205.600 195.600 C 205.380 195.600,205.200 195.960,205.200 196.400 C 205.200 196.840,205.020 197.200,204.800 197.200 C 204.580 197.200,204.400 197.639,204.400 198.176 C 204.400 198.713,204.580 199.264,204.800 199.400 C 205.020 199.536,205.200 199.997,205.200 200.424 C 205.200 200.851,205.380 201.200,205.600 201.200 C 205.820 201.200,206.000 201.545,206.000 201.967 C 206.000 202.388,206.212 202.804,206.471 202.890 C 207.091 203.097,207.017 207.457,206.381 208.223 C 206.119 208.538,206.003 209.168,206.122 209.622 C 206.254 210.129,206.118 210.533,205.769 210.667 C 205.009 210.959,205.007 214.264,205.766 215.024 C 206.500 215.757,221.464 215.788,222.365 215.058 C 222.793 214.711,222.971 214.721,223.098 215.100 C 223.302 215.704,227.035 215.791,227.400 215.200 C 227.536 214.980,228.157 214.800,228.781 214.800 C 229.414 214.800,230.015 214.538,230.142 214.207 C 230.272 213.869,230.635 213.715,230.985 213.850 C 231.378 214.000,231.600 213.858,231.600 213.455 C 231.600 213.064,231.824 212.911,232.190 213.051 C 232.833 213.298,233.692 212.604,234.110 211.500 C 234.256 211.115,234.651 210.800,234.987 210.800 C 235.333 210.800,235.600 210.452,235.600 210.000 C 235.600 209.560,235.799 209.200,236.043 209.200 C 236.286 209.200,236.379 208.923,236.250 208.585 C 236.115 208.235,236.269 207.872,236.607 207.742 C 236.942 207.613,237.200 207.011,237.200 206.357 C 237.200 205.721,237.380 205.200,237.601 205.200 C 238.119 205.200,238.095 192.906,237.576 192.585 C 237.369 192.457,237.200 191.823,237.200 191.176 C 237.200 190.529,237.020 190.000,236.800 190.000 C 236.580 190.000,236.400 189.765,236.400 189.478 C 236.400 188.573,233.743 186.000,232.809 186.000 C 232.262 186.000,231.845 185.695,231.716 185.200 C 231.600 184.757,231.170 184.400,230.753 184.400 C 230.339 184.400,230.000 184.220,230.000 184.000 C 230.000 183.780,229.640 183.600,229.200 183.600 C 228.760 183.600,228.400 183.441,228.400 183.247 C 228.400 183.053,227.655 182.884,226.744 182.871 C 225.834 182.859,224.898 182.658,224.664 182.424 C 224.107 181.867,218.978 181.877,217.931 182.437 C 217.340 182.753,216.993 182.753,216.677 182.437 C 216.121 181.881,208.141 181.848,207.800 182.400 M245.900 182.562 C 245.134 183.138,244.917 185.778,245.600 186.200 C 245.820 186.336,246.000 186.979,246.000 187.629 C 246.000 188.279,246.223 189.168,246.496 189.605 C 246.891 190.238,246.891 190.562,246.496 191.195 C 246.223 191.632,246.000 192.971,246.000 194.171 C 246.000 195.371,245.820 196.464,245.600 196.600 C 245.380 196.736,245.200 197.546,245.200 198.400 C 245.200 199.254,245.380 200.064,245.600 200.200 C 245.820 200.336,246.000 200.962,246.000 201.590 C 246.000 202.219,246.204 202.801,246.452 202.884 C 247.016 203.072,246.959 208.940,246.392 209.133 C 246.176 209.207,246.000 209.629,246.000 210.072 C 246.000 210.514,245.623 211.406,245.163 212.052 C 244.282 213.289,244.425 213.808,246.000 215.087 C 246.757 215.702,259.826 215.805,260.200 215.200 C 260.336 214.980,261.146 214.800,262.000 214.800 C 262.854 214.800,263.664 214.980,263.800 215.200 C 264.205 215.855,268.315 215.674,269.414 214.954 C 269.956 214.599,270.400 214.423,270.400 214.563 C 270.400 214.704,270.861 214.517,271.424 214.148 C 272.196 213.642,272.319 213.395,271.924 213.144 C 271.524 212.891,271.519 212.811,271.900 212.806 C 272.175 212.803,272.400 212.530,272.400 212.200 C 272.400 211.870,272.569 211.600,272.775 211.600 C 272.981 211.600,273.150 210.417,273.150 208.971 C 273.150 207.490,273.363 206.085,273.638 205.754 C 274.008 205.309,274.014 205.054,273.663 204.703 C 273.408 204.448,273.200 203.993,273.200 203.691 C 273.200 202.592,272.071 202.000,269.973 202.000 C 268.457 202.000,267.743 201.809,267.357 201.300 C 266.720 200.461,266.594 194.175,267.207 193.796 C 267.430 193.658,267.537 193.422,267.443 193.272 C 267.350 193.123,268.447 193.061,269.881 193.136 C 271.598 193.226,272.644 193.103,272.944 192.777 C 273.298 192.393,273.221 192.340,272.600 192.542 C 271.903 192.768,271.881 192.737,272.430 192.301 C 273.177 191.706,273.533 186.800,272.828 186.800 C 272.593 186.800,272.400 186.281,272.400 185.647 C 272.400 184.830,272.167 184.432,271.600 184.284 C 271.160 184.169,270.800 183.788,270.800 183.437 C 270.800 182.999,270.433 182.800,269.624 182.800 C 268.977 182.800,268.336 182.620,268.200 182.400 C 267.860 181.849,261.870 181.890,261.313 182.447 C 261.011 182.749,259.912 182.803,257.933 182.614 C 251.874 182.034,246.632 182.012,245.900 182.562 M261.709 191.319 L 262.710 191.838 261.838 192.619 C 260.813 193.537,259.163 193.464,258.256 192.462 C 257.679 191.824,257.699 191.763,258.508 191.702 C 258.992 191.665,259.451 191.448,259.527 191.218 C 259.715 190.655,260.500 190.692,261.709 191.319 M223.343 191.800 C 223.673 192.130,224.226 192.400,224.571 192.400 C 224.917 192.400,225.200 192.599,225.200 192.843 C 225.200 193.086,225.464 193.184,225.787 193.060 C 226.110 192.936,226.498 193.035,226.649 193.279 C 226.815 193.548,226.741 193.611,226.462 193.438 C 226.208 193.281,226.000 193.343,226.000 193.576 C 226.000 193.809,226.180 194.000,226.400 194.000 C 226.620 194.000,226.800 194.360,226.800 194.800 C 226.800 195.240,226.980 195.600,227.200 195.600 C 227.420 195.600,227.600 196.028,227.600 196.551 C 227.600 197.074,227.839 197.701,228.132 197.943 C 228.743 198.451,228.539 200.831,227.845 201.300 C 227.535 201.509,227.583 201.720,228.000 201.994 C 228.333 202.212,228.395 202.390,228.140 202.394 C 227.887 202.397,227.050 203.030,226.280 203.800 C 225.510 204.570,224.538 205.200,224.120 205.200 C 223.702 205.200,223.152 205.408,222.899 205.661 C 222.191 206.369,220.124 206.146,219.172 205.259 C 217.532 203.732,216.670 201.175,217.600 200.600 C 218.189 200.236,218.101 197.601,217.500 197.594 C 217.121 197.589,217.115 197.514,217.476 197.285 C 217.738 197.119,217.942 196.447,217.931 195.791 C 217.920 195.136,218.191 194.073,218.535 193.429 C 218.878 192.784,219.068 192.109,218.956 191.929 C 218.844 191.748,218.943 191.600,219.176 191.600 C 219.409 191.600,219.600 191.790,219.600 192.023 C 219.600 192.260,219.991 192.172,220.489 191.823 C 221.609 191.038,222.573 191.031,223.343 191.800 M261.200 204.531 C 261.200 205.337,261.040 205.438,260.000 205.285 C 259.280 205.180,258.800 205.287,258.800 205.555 C 258.800 205.800,258.620 206.000,258.400 206.000 C 258.180 206.000,258.000 205.460,258.000 204.800 C 258.000 203.667,258.089 203.600,259.600 203.600 C 261.008 203.600,261.200 203.712,261.200 204.531 M267.300 234.822 C 266.804 235.016,266.129 235.071,265.800 234.944 C 265.470 234.818,265.200 234.914,265.200 235.157 C 265.200 235.401,264.840 235.600,264.400 235.600 C 263.413 235.600,263.368 236.065,264.300 236.637 C 264.728 236.900,266.437 236.996,268.700 236.884 C 272.128 236.716,273.253 236.302,271.802 235.746 C 271.474 235.619,271.281 235.392,271.375 235.241 C 271.468 235.090,271.152 234.937,270.672 234.901 C 270.193 234.865,269.440 234.753,269.000 234.653 C 268.560 234.553,267.795 234.629,267.300 234.822 M119.400 236.000 C 119.246 236.250,119.952 236.382,121.276 236.353 C 123.083 236.312,123.221 236.260,122.200 236.000 C 120.436 235.551,119.677 235.551,119.400 236.000 M117.200 236.800 C 117.200 237.020,117.470 237.200,117.800 237.200 C 118.130 237.200,118.400 237.020,118.400 236.800 C 118.400 236.580,118.130 236.400,117.800 236.400 C 117.470 236.400,117.200 236.580,117.200 236.800 M117.200 239.110 C 117.200 239.269,148.520 239.400,186.800 239.400 C 225.080 239.400,256.400 239.267,256.400 239.105 C 256.400 238.942,225.080 238.812,186.800 238.814 C 148.520 238.817,117.200 238.950,117.200 239.110 M262.800 239.226 C 262.800 239.518,263.432 239.630,264.567 239.540 C 265.599 239.458,266.306 239.566,266.267 239.800 C 266.230 240.020,266.920 240.257,267.800 240.327 C 268.680 240.396,269.571 240.621,269.780 240.827 C 270.975 242.000,276.597 241.002,275.595 239.794 C 275.094 239.190,275.163 239.146,276.319 239.328 C 277.021 239.439,277.689 239.380,277.802 239.196 C 277.915 239.013,274.586 238.843,270.404 238.817 C 264.967 238.785,262.800 238.901,262.800 239.226 " stroke="none" fill="#fcfcfc" fill-rule="evenodd"></path><path id="path1" d="M270.700 159.896 C 272.075 159.974,274.325 159.974,275.700 159.896 C 277.075 159.818,275.950 159.754,273.200 159.754 C 270.450 159.754,269.325 159.818,270.700 159.896 M118.800 160.328 C 117.733 160.679,116.356 162.489,117.300 162.300 C 117.575 162.245,117.770 162.380,117.733 162.600 C 117.689 162.866,145.155 162.966,199.633 162.898 L 281.600 162.796 281.600 161.598 L 281.600 160.400 273.300 160.352 C 244.605 160.185,119.293 160.166,118.800 160.328 M120.100 163.491 C 120.925 163.578,122.275 163.578,123.100 163.491 C 123.925 163.405,123.250 163.334,121.600 163.334 C 119.950 163.334,119.275 163.405,120.100 163.491 M137.300 163.494 C 138.345 163.576,140.055 163.576,141.100 163.494 C 142.145 163.412,141.290 163.344,139.200 163.344 C 137.110 163.344,136.255 163.412,137.300 163.494 M270.100 163.498 C 272.025 163.571,275.175 163.571,277.100 163.498 C 279.025 163.425,277.450 163.365,273.600 163.365 C 269.750 163.365,268.175 163.425,270.100 163.498 M118.400 236.800 C 118.400 237.020,118.130 237.200,117.800 237.200 C 117.467 237.200,117.200 237.556,117.200 238.000 C 117.200 238.921,106.655 238.835,215.927 238.805 C 265.253 238.792,277.198 238.887,276.969 239.294 C 276.740 239.699,276.790 239.700,277.221 239.300 C 277.518 239.025,278.714 238.800,279.880 238.800 C 281.733 238.800,282.000 238.699,282.000 238.000 C 282.000 237.308,281.733 237.200,280.033 237.200 C 278.891 237.200,278.001 237.004,277.911 236.734 C 277.794 236.381,276.201 236.370,271.378 236.689 C 267.660 236.934,264.841 236.962,264.620 236.755 C 264.104 236.272,262.800 236.305,262.800 236.800 C 262.800 237.033,261.467 237.200,259.600 237.200 C 257.733 237.200,256.400 237.033,256.400 236.800 C 256.400 236.535,233.133 236.400,187.400 236.400 C 141.667 236.400,118.400 236.535,118.400 236.800 M135.900 239.499 C 139.255 239.566,144.745 239.566,148.100 239.499 C 151.455 239.432,148.710 239.378,142.000 239.378 C 135.290 239.378,132.545 239.432,135.900 239.499 M165.700 239.497 C 167.405 239.572,170.195 239.572,171.900 239.497 C 173.605 239.422,172.210 239.361,168.800 239.361 C 165.390 239.361,163.995 239.422,165.700 239.497 M187.900 239.500 C 193.895 239.562,203.705 239.562,209.700 239.500 C 215.695 239.438,210.790 239.387,198.800 239.387 C 186.810 239.387,181.905 239.438,187.900 239.500 M227.900 239.499 C 231.255 239.566,236.745 239.566,240.100 239.499 C 243.455 239.432,240.710 239.378,234.000 239.378 C 227.290 239.378,224.545 239.432,227.900 239.499 M252.305 239.483 C 252.802 239.579,253.522 239.575,253.905 239.475 C 254.287 239.375,253.880 239.296,253.000 239.301 C 252.120 239.305,251.807 239.387,252.305 239.483 " stroke="none" fill="#9fe4e3" fill-rule="evenodd"></path><path id="path2" d="" stroke="none" fill="#100f0ec" fill-rule="evenodd"></path><path id="path3" d="" stroke="none" fill="#100f0ec" fill-rule="evenodd"></path><path id="path4" d="" stroke="none" fill="#100f0ec" fill-rule="evenodd"></path></g></svg>